<svg width="36" height="36" viewBox="0 0 36 36" fill="none" xmlns="http://www.w3.org/2000/svg">
<path d="M17.5852 35.8707H17.508C7.8542 35.8707 0 28.0142 0 18.3575V18.2803C0 8.62361 7.8542 0.76709 17.508 0.76709H17.5852C27.239 0.76709 35.0932 8.62361 35.0932 18.2803V18.3575C35.0932 28.0142 27.239 35.8707 17.5852 35.8707ZM17.508 1.95531C8.50871 1.95531 1.18787 9.27832 1.18787 18.2803V18.3575C1.18787 27.3594 8.50871 34.6824 17.508 34.6824H17.5852C26.5845 34.6824 33.9054 27.3594 33.9054 18.3575V18.2803C33.9054 9.27832 26.5845 1.95531 17.5852 1.95531H17.508Z" fill="black"/>
<path d="M19.9076 14.3829V18.0771H24.4761L23.7527 23.0533H19.9076V34.5185C19.1366 34.6254 18.3479 34.6813 17.5473 34.6813C16.6231 34.6813 15.7156 34.6076 14.8318 34.465V23.0533H10.6184V18.0771H14.8318V13.5571C14.8318 10.7529 17.1042 8.47864 19.9087 8.47864V8.48102C19.9171 8.48102 19.9242 8.47864 19.9325 8.47864H24.4773V12.7824H21.5076C20.625 12.7824 19.9087 13.4989 19.9087 14.3817L19.9076 14.3829Z" fill="black"/>
</svg>
