<svg width="36" height="36" viewBox="0 0 36 36" fill="none" xmlns="http://www.w3.org/2000/svg">
<path d="M17.865 35.4618H17.7878C8.13398 35.4618 0.279785 27.6053 0.279785 17.9487V17.8714C0.279785 8.21477 8.13398 0.358276 17.7878 0.358276H17.865C27.5188 0.358276 35.373 8.21477 35.373 17.8714V17.9487C35.373 27.6053 27.5188 35.4618 17.865 35.4618ZM17.7878 1.5465C8.7885 1.5465 1.46766 8.86948 1.46766 17.8714V17.9487C1.46766 26.9506 8.7885 34.2736 17.7878 34.2736H17.865C26.8643 34.2736 34.1852 26.9506 34.1852 17.9487V17.8714C34.1852 8.86948 26.8643 1.5465 17.865 1.5465H17.7878Z" fill="black"/>
<path d="M7.75024 8.63062L15.5688 19.0869L7.70154 27.5887H9.47266L16.3611 20.1457L21.9263 27.5887H27.9523L19.6943 16.5442L27.0175 8.63062H25.2464L18.9031 15.4855L13.7775 8.63062H7.75142H7.75024ZM10.354 9.93531H13.1218L25.3462 26.284H22.5784L10.354 9.93531Z" fill="black"/>
</svg>
