<svg width="36" height="36" viewBox="0 0 36 36" fill="none" xmlns="http://www.w3.org/2000/svg">
<path d="M17.7718 35.4618H17.6945C8.04072 35.4618 0.186523 27.6053 0.186523 17.9487V17.8714C0.186523 8.21477 8.04072 0.358276 17.6945 0.358276H17.7718C27.4256 0.358276 35.2798 8.21477 35.2798 17.8714V17.9487C35.2798 27.6053 27.4256 35.4618 17.7718 35.4618ZM17.6945 1.5465C8.69524 1.5465 1.37439 8.86948 1.37439 17.8714V17.9487C1.37439 26.9506 8.69524 34.2736 17.6945 34.2736H17.7718C26.7711 34.2736 34.0919 26.9506 34.0919 17.9487V17.8714C34.0919 8.86948 26.7711 1.5465 17.7718 1.5465H17.6945Z" fill="black"/>
<path d="M25.9289 13.222V16.4242C25.3694 16.3696 24.6424 16.2424 23.8382 15.9478C22.7881 15.5628 22.0065 15.0364 21.4945 14.6289V21.1011L21.4815 21.0809C21.4898 21.2092 21.4945 21.3399 21.4945 21.4718C21.4945 24.6859 18.88 27.3024 15.6657 27.3024C12.4513 27.3024 9.83679 24.6859 9.83679 21.4718C9.83679 18.2577 12.4513 15.64 15.6657 15.64C15.9805 15.64 16.2893 15.665 16.591 15.7137V18.8696C16.3012 18.7662 15.99 18.7104 15.6657 18.7104C14.144 18.7104 12.9051 19.9485 12.9051 21.4718C12.9051 22.9951 14.144 24.2332 15.6657 24.2332C17.1873 24.2332 18.4263 22.9939 18.4263 21.4718C18.4263 21.4148 18.4251 21.3577 18.4215 21.3007V8.72339H21.6205C21.6323 8.9943 21.643 9.26761 21.6549 9.53852C21.6763 10.072 21.8663 10.5842 22.1978 11.0036C22.5862 11.4967 23.1599 12.0694 23.9653 12.5269C24.7196 12.9535 25.4276 13.1376 25.9289 13.2244V13.222Z" fill="black"/>
</svg>
