<svg width="36" height="36" viewBox="0 0 36 36" fill="none" xmlns="http://www.w3.org/2000/svg">
<path d="M17.6785 35.4618H17.6013C7.94746 35.4618 0.0932617 27.6053 0.0932617 17.9487V17.8714C0.0932617 8.21477 7.94746 0.358276 17.6013 0.358276H17.6785C27.3323 0.358276 35.1865 8.21477 35.1865 17.8714V17.9487C35.1865 27.6053 27.3323 35.4618 17.6785 35.4618ZM17.6013 1.5465C8.60198 1.5465 1.28113 8.86948 1.28113 17.8714V17.9487C1.28113 26.9506 8.60198 34.2736 17.6013 34.2736H17.6785C26.6778 34.2736 33.9986 26.9506 33.9986 17.9487V17.8714C33.9986 8.86948 26.6778 1.5465 17.6785 1.5465H17.6013Z" fill="black"/>
<path d="M22.8861 7.85242H12.3949C9.49647 7.85242 7.13855 10.211 7.13855 13.1103V22.7111C7.13855 25.6103 9.49647 27.969 12.3949 27.969H22.8861C25.7845 27.969 28.1425 25.6103 28.1425 22.7111V13.1103C28.1425 10.211 25.7845 7.85242 22.8861 7.85242ZM8.99282 13.1103C8.99282 11.2341 10.5192 9.70721 12.3949 9.70721H22.8861C24.7618 9.70721 26.2882 11.2341 26.2882 13.1103V22.7111C26.2882 24.5873 24.7618 26.1142 22.8861 26.1142H12.3949C10.5192 26.1142 8.99282 24.5873 8.99282 22.7111V13.1103Z" fill="black"/>
<path d="M17.6406 22.8002C20.3359 22.8002 22.5299 20.6068 22.5299 17.9095C22.5299 15.2122 20.3371 13.0188 17.6406 13.0188C14.9442 13.0188 12.7513 15.2122 12.7513 17.9095C12.7513 20.6068 14.9442 22.8002 17.6406 22.8002ZM17.6406 14.8748C19.3143 14.8748 20.6756 16.2365 20.6756 17.9107C20.6756 19.5849 19.3143 20.9466 17.6406 20.9466C15.9669 20.9466 14.6056 19.5849 14.6056 17.9107C14.6056 16.2365 15.9669 14.8748 17.6406 14.8748Z" fill="black"/>
<path d="M22.9824 13.809C23.7082 13.809 24.2997 13.2185 24.2997 12.4913C24.2997 11.7641 23.7094 11.1736 22.9824 11.1736C22.2554 11.1736 21.665 11.7641 21.665 12.4913C21.665 13.2185 22.2554 13.809 22.9824 13.809Z" fill="black"/>
</svg>
